# xmcd
#
# Track frame offsets:
#	150
#	12381
#	25959
#	43198
#
# Disc length: 733 seconds
#
# Revision: 0
# Processed by: cddbd v1.5.2PL0 Copyright (c) Steve Scherf et al.
# Submitted via: audiograbber 1.83.01
#
DISCID=2c02db04
DTITLE=Grant Luhrs - Tamworth on a Train
DYEAR=1900
DGENRE=Folk
TTITLE0=Tamworth on a Train
TTITLE1=South West Mail
TTITLE2=Heart of the Night
TTITLE3=You Gotta Laugh
EXTD=On behalf of Cross Country Express Pty Ltd and Tours Unlimited we welcome 
EXTD=you aboard the annual Tamworth Country Music Train (Australia)
EXTT0=From the Album "Another Story", 2003
EXTT1=From the Album "Men without Shoes", 1992
EXTT2=By C.Anderson/P.Tiller from the Album "Campfire", 1995
EXTT3=From the Album "You Gotta Laugh", 1997
PLAYORDER=
